<svg xmlns="http://www.w3.org/2000/svg" viewBox="0 0 512 512" width="512" height="512">
  <!-- Shield base -->
  <path d="M256 21.52l-200 92.36v153.96c0 84.84 86.8 153.28 200 221.64 113.2-68.36 200-136.8 200-221.64V113.88L256 21.52z" fill="#2563eb" />
  
  <!-- Shield inner -->
  <path d="M256 51.52l-170 78.36v138.96c0 72.01 73.78 130.29 170 188.64 96.22-58.35 170-116.63 170-188.64V129.88L256 51.52z" fill="#1d4ed8" />
  
  <!-- Truth T -->
  <path d="M200 160h112v32h-40v128h-32V192h-40v-32z" fill="white" />
  
  <!-- Checkmark -->
  <path d="M240 280l-30-30 22-22 8 8 38-38 22 22z" fill="white" />
</svg> 